<svg width="407" height="372" viewBox="0 0 407 372" fill="none" xmlns="http://www.w3.org/2000/svg">
<path d="M24.918 245.545C27.6626 243.303 28.3584 239.399 28.3584 232.943V200.047C28.3584 193.514 27.6626 189.687 24.918 187.445V187.058H49.4261V187.445C46.7202 189.687 46.0243 193.514 46.0243 200.047V211.953H66.6282V200.047C66.6282 193.514 65.9324 189.687 63.1878 187.445V187.058H87.7732V187.445C84.99 189.687 84.2555 193.514 84.2555 200.047V232.943C84.2555 239.399 84.9513 243.303 87.6959 245.545V245.932H63.1878V245.545C65.9324 243.303 66.6282 239.399 66.6282 232.943V219.645H46.0243V232.943C46.0243 239.399 46.7202 243.303 49.4261 245.545V245.932H24.918V245.545Z" fill="#EF3D26"/>
<path d="M95.041 245.545C97.7856 243.303 98.4814 239.399 98.4814 232.943V200.047C98.4814 193.514 97.7856 189.687 95.041 187.445V187.058H119.549V187.445C116.843 189.687 116.147 193.514 116.147 200.047V232.943C116.147 239.399 116.843 243.303 119.549 245.545V245.932H95.041V245.545Z" fill="#EF3D26"/>
<path d="M125.812 217.597C125.812 196.916 140.81 185.86 160.138 185.86C175.872 185.86 188.01 194.094 191.102 206.618H174.287C172.508 198.539 167.908 193.398 160.061 193.398C150.165 193.398 144.096 201.786 144.096 214.62C144.096 228.382 150.706 236.036 160.448 236.036C169.532 236.036 174.673 229.812 176.181 221.192H157.123L157.046 214.891H191.605V246.396H184.762L177.998 233.639H177.302C173.32 241.332 165.937 247.014 154.726 247.014C137.524 247.014 125.85 235.417 125.85 217.597H125.812Z" fill="#EF3D26"/>
<path d="M200.263 245.545C203.008 243.303 203.704 239.399 203.704 232.943V200.047C203.704 193.514 203.008 189.687 200.263 187.445V187.058H224.771V187.445C222.065 189.687 221.37 193.514 221.37 200.047V211.953H241.973V200.047C241.973 193.514 241.278 189.687 238.533 187.445V187.058H263.118V187.445C260.335 189.687 259.601 193.514 259.601 200.047V232.943C259.601 239.399 260.297 243.303 263.041 245.545V245.932H238.533V245.545C241.278 243.303 241.973 239.399 241.973 232.943V219.645H221.37V232.943C221.37 239.399 222.065 243.303 224.771 245.545V245.932H200.263V245.545Z" fill="#EF3D26"/>
<path d="M270.386 245.545C273.13 243.303 273.826 239.399 273.826 232.943V200.047C273.826 193.514 273.13 189.687 270.386 187.445V187.058H315.421V199.66C306.414 195.91 302.277 194.287 296.672 194.287H291.454V212.185H294.817C299.262 212.185 304.481 211.721 311.168 211.025V220.032C304.481 219.104 299.262 218.95 294.817 218.95H291.454V238.703H296.208C302.664 238.703 307.805 237.775 317.044 233.175V245.932H270.347V245.545H270.386Z" fill="#EF3D26"/>
<path d="M323.693 245.545C326.437 243.303 327.133 239.399 327.133 232.943V200.047C327.133 193.514 326.437 189.687 323.693 187.445V187.058H352.26C368.38 187.058 377.541 191.504 377.541 202.675C377.541 211.528 371.936 216.282 362.929 217.983L383.069 245.275V245.893H363.006L347.041 219.761H344.645V232.905C344.645 239.36 345.418 243.265 348.24 245.507V245.893H323.732V245.507L323.693 245.545ZM348.124 213.19C355.662 213.19 360.03 210.407 360.03 203.062C360.03 196.684 355.894 193.862 348.665 193.862H344.606V213.151H348.124V213.19Z" fill="#EF3D26"/>
<path d="M0.139243 321.853C2.88385 319.611 3.57966 315.707 3.57966 309.251V276.354C3.57966 269.821 2.88385 265.994 0.139243 263.752V263.366H26.4256C44.0142 263.366 53.7943 268.043 53.7943 280.104C53.7943 292.165 42.2747 297.383 25.1499 297.383H21.1683V309.29C21.1683 315.745 21.8641 319.649 24.7634 321.892V322.278H0.100586V321.892L0.139243 321.853ZM24.0289 290.696C31.4896 290.696 36.0124 287.642 36.0124 280.027C36.0124 273.339 32.1854 270.208 24.9566 270.208H21.207V290.657H23.9902L24.0289 290.696Z" fill="#EF3D26"/>
<path d="M56.269 311.957L72.466 269.319C73.2392 267.154 73.0845 265.028 72.3887 263.327H90.2866L108.958 312.653C110.504 316.866 112.553 320.113 115.336 321.853V322.24H88.1992V321.853C91.7942 320.075 91.8715 317.176 90.5186 312.769L88.5857 306.545H68.2138L66.2037 312.459C64.4255 317.601 64.6575 320.229 67.9819 321.969V322.278H48.9243V321.969C51.6303 320.191 54.3749 317.214 56.3077 311.996L56.269 311.957ZM86.421 299.742L78.7284 275.388L70.4946 299.742H86.421Z" fill="#EF3D26"/>
<path d="M115.103 303.723H130.836C131.223 311.029 135.359 316.789 142.897 316.789C147.574 316.789 150.744 314.702 150.744 310.411C150.744 305.269 145.989 303.182 135.9 298.736C125.695 294.291 116.997 289.807 116.997 279.602C116.997 268.005 127.125 262.09 140.114 262.09C153.102 262.09 163.849 267.927 166.245 280.065H150.86C150.319 273.996 146.724 268.932 139.959 268.932C135.127 268.932 132.576 271.252 132.653 274.924C132.73 280.143 138.49 282.539 147.497 286.521C159.017 291.585 166.632 295.528 166.632 305.579C166.632 317.021 156.736 323.631 142.433 323.631C128.13 323.631 116.533 316.866 115.142 303.723H115.103Z" fill="#EF3D26"/>
<path d="M171.542 263.327H226.472V276.084C217.62 272.102 213.561 270.401 208.033 270.401H207.801V309.212C207.801 315.668 208.574 319.572 211.203 321.814V322.201H186.772V321.814C189.478 319.572 190.213 315.668 190.213 309.212V270.401H190.058C184.453 270.401 180.394 272.102 171.542 276.084V263.327Z" fill="#EF3D26"/>
<path d="M234.281 297.19V276.354C234.281 269.821 233.585 265.994 230.841 263.752V263.366H255.349V263.752C252.643 265.994 251.909 269.821 251.909 276.354V297.654C251.909 309.406 255.117 314.547 263.351 314.547C271.585 314.547 275.721 309.328 275.721 297.654V276.354C275.721 269.821 275.025 265.994 272.28 263.752V263.366H289.096V263.752C286.351 265.994 285.578 269.821 285.578 276.354V297.19C285.578 315.784 276.571 323.631 260.684 323.631C245.917 323.631 234.243 317.253 234.243 297.19H234.281Z" fill="#EF3D26"/>
<path d="M294.894 321.853C297.639 319.611 298.334 315.707 298.334 309.251V276.354C298.334 269.821 297.639 265.994 294.894 263.752V263.366H323.461C339.581 263.366 348.742 267.811 348.742 278.983C348.742 287.835 343.137 292.59 334.13 294.291L354.27 321.582V322.201H334.208L318.242 296.069H315.846V309.212C315.846 315.668 316.619 319.572 319.441 321.814V322.201H294.933V321.814L294.894 321.853ZM319.325 289.459C326.863 289.459 331.231 286.676 331.231 279.331C331.231 272.953 327.095 270.131 319.866 270.131H315.807V289.42H319.325V289.459Z" fill="#EF3D26"/>
<path d="M359.76 321.853C362.504 319.611 363.2 315.707 363.2 309.251V276.354C363.2 269.821 362.504 265.994 359.76 263.752V263.366H404.795V275.968C395.788 272.218 391.651 270.595 386.046 270.595H380.828V288.492H384.191C388.636 288.492 393.855 288.029 400.542 287.333V296.34C393.855 295.412 388.636 295.257 384.191 295.257H380.828V315.011H385.582C392.038 315.011 397.179 314.083 406.418 309.483V322.239H359.721V321.853H359.76Z" fill="#EF3D26"/>
<path d="M85.9569 369.941C83.9081 368.898 82.3619 367.313 81.2408 365.187C80.1198 363.061 79.5786 360.471 79.5786 357.378C79.5786 354.286 80.1585 351.541 81.3182 349.454C82.4778 347.327 84.0627 345.781 86.1115 344.776C88.1603 343.771 90.5184 343.268 93.2243 343.268C96.974 343.268 99.9119 344.08 102.038 345.704C104.164 347.327 105.478 349.647 106.058 352.662L98.8681 353.822C98.4816 352.469 97.7858 351.425 96.8967 350.691C95.9689 349.956 94.7706 349.569 93.2243 349.569C91.9873 349.569 90.9049 349.84 89.9385 350.42C88.9721 351 88.2376 351.889 87.6964 353.049C87.1553 354.208 86.8847 355.677 86.8847 357.378C86.8847 359.079 87.1553 360.471 87.6578 361.63C88.1603 362.79 88.9335 363.679 89.8612 364.298C90.789 364.916 91.91 365.187 93.147 365.187C94.8092 365.187 96.1235 364.8 97.0126 364.066C97.9404 363.292 98.5589 362.249 98.9068 360.857L106.097 362.017C105.478 365.148 104.125 367.506 102.038 369.091C99.9505 370.676 97.0126 371.488 93.1857 371.488C90.4411 371.488 88.0444 370.946 86.0342 369.903L85.9569 369.941Z" fill="#CC872A"/>
<path d="M120.825 343.655H130.257L140.114 371.101H132.615L124.652 347.521H126.237L118.273 371.101H110.967L120.825 343.655ZM117.152 359.04H133.504V365.341H117.152V359.04Z" fill="#CC872A"/>
<path d="M147.034 343.655H154.302L166.826 361.012H166.014V343.655H172.973V371.101H165.705L153.219 353.86H153.992V371.101H147.034V343.655Z" fill="#CC872A"/>
<path d="M182.288 343.655H189.555L202.08 361.012H201.268V343.655H208.227V371.101H200.959L188.473 353.86H189.246V371.101H182.288V343.655Z" fill="#CC872A"/>
<path d="M224.926 343.655H234.358L244.216 371.101H236.716L228.753 347.521H230.338L222.375 371.101H215.069L224.926 343.655ZM221.254 359.04H237.605V365.341H221.254V359.04Z" fill="#CC872A"/>
<path d="M251.135 343.655H264.78C267.757 343.655 269.999 344.312 271.545 345.588C273.092 346.864 273.903 348.758 273.903 351.193C273.903 352.237 273.71 353.203 273.324 354.092C272.937 354.981 272.318 355.716 271.468 356.334C270.618 356.953 269.535 357.339 268.221 357.494V356.953C270.308 356.992 271.893 357.61 273.014 358.77C274.135 359.929 274.677 361.437 274.677 363.215C274.677 365.728 273.865 367.699 272.241 369.014C270.618 370.367 268.182 371.024 264.896 371.024H251.135V343.578V343.655ZM266.172 353.822C266.675 353.396 266.907 352.778 266.907 351.928C266.907 351.077 266.675 350.459 266.172 350.072C265.708 349.685 264.858 349.454 263.621 349.454H258.17V354.479H263.698C264.858 354.479 265.67 354.247 266.172 353.822ZM266.636 364.684C267.216 364.259 267.525 363.602 267.525 362.713C267.525 361.824 267.254 361.166 266.713 360.741C266.172 360.316 265.244 360.123 263.969 360.123H258.17V365.303H263.775C265.09 365.303 266.056 365.109 266.636 364.684Z" fill="#CC872A"/>
<path d="M282.834 343.655H289.947V371.101H282.834V343.655Z" fill="#CC872A"/>
<path d="M301.659 369.478C299.572 368.125 298.296 366.076 297.832 363.408L305.254 362.249C305.486 363.254 305.989 364.027 306.8 364.645C307.612 365.264 308.81 365.535 310.434 365.535C311.439 365.535 312.29 365.457 312.985 365.264C313.642 365.071 314.145 364.8 314.493 364.452C314.841 364.104 314.995 363.679 314.995 363.215C314.995 362.635 314.802 362.171 314.377 361.862C313.952 361.553 313.101 361.282 311.864 361.05L307.032 360.161C304.326 359.659 302.239 358.77 300.847 357.533C299.456 356.296 298.721 354.44 298.721 351.928C298.721 350.149 299.185 348.603 300.113 347.327C301.041 346.052 302.355 345.047 304.094 344.351C305.834 343.655 307.883 343.307 310.241 343.307C313.952 343.307 316.774 344.003 318.706 345.395C320.639 346.786 321.838 348.758 322.302 351.348L314.957 352.507C314.802 351.58 314.338 350.845 313.643 350.227C312.908 349.608 311.787 349.338 310.202 349.338C309.352 349.338 308.579 349.415 307.96 349.608C307.342 349.801 306.839 350.072 306.491 350.42C306.143 350.768 305.989 351.154 305.989 351.618C305.989 352.198 306.22 352.662 306.723 352.971C307.226 353.28 308.153 353.551 309.506 353.783L315.305 354.865C317.585 355.291 319.325 356.18 320.523 357.494C321.722 358.808 322.302 360.587 322.302 362.829C322.302 364.645 321.838 366.192 320.91 367.506C319.982 368.82 318.629 369.825 316.851 370.521C315.073 371.217 312.869 371.565 310.279 371.565C306.607 371.565 303.708 370.869 301.62 369.516L301.659 369.478Z" fill="#CC872A"/>
<path d="M243.443 160.965C240.35 160.965 238.301 160.347 237.953 159.264C237.683 158.452 238.185 156.442 244.254 152.19C247.076 150.219 248.004 149.677 249.705 148.672C250.478 148.208 251.406 147.667 252.797 146.817C254.614 145.773 255.658 145.116 256.586 144.536C257.861 143.724 258.905 143.067 261.495 141.676C263.196 140.748 264.278 140.245 265.245 139.82L270.618 137.346L272.473 136.457C273.633 135.916 274.406 135.529 275.179 135.181L275.953 134.833C276.919 134.408 277.963 133.906 279.818 133.132C282.563 132.089 283.722 131.741 285.191 131.316C286.235 131.006 287.433 130.658 289.405 130.001C290.874 129.46 292.343 128.996 293.657 128.571C294.469 128.3 295.281 128.069 295.977 127.798C297.948 127.102 299.301 126.716 299.726 126.638C299.842 126.638 300.074 126.522 300.345 126.445C300.615 126.329 300.963 126.213 301.156 126.174C303.824 125.479 304.829 125.363 306.027 125.208C307.032 125.092 308.153 124.937 310.434 124.473C311.632 124.203 312.521 124.048 313.295 123.894C314.106 123.739 314.764 123.623 315.382 123.468C315.691 123.391 316.001 123.352 316.348 123.275C317.354 123.043 318.475 122.811 320.291 122.579L322.881 122.27C325.549 121.961 326.36 121.845 330.342 121.574C331.347 121.497 332.159 121.42 332.855 121.381C333.86 121.304 334.633 121.226 335.367 121.188C336.604 121.11 337.88 121.033 340.393 120.956H341.05C342.557 120.956 343.524 121.033 344.413 121.072C344.761 121.072 345.07 121.11 345.418 121.149C347.969 121.149 349.168 121.536 349.4 121.883C349.4 121.922 349.438 121.999 349.4 122.077C348.897 123.43 344.336 125.71 340.741 126.058C336.991 126.406 335.561 126.677 333.628 127.063C332.468 127.295 331.154 127.527 328.989 127.875C327.481 128.069 326.399 128.262 325.51 128.455L320.794 129.267C320.021 129.421 319.17 129.615 318.088 129.885L317.354 130.079L314.3 130.852C313.913 130.968 313.527 131.045 313.101 131.161C312.56 131.316 311.942 131.47 311.246 131.664L310.434 131.895C309.39 132.205 308.579 132.437 307.883 132.669L305.602 133.48C305.099 133.674 304.636 133.828 304.094 134.022C303.089 134.369 301.852 134.833 300.035 135.529L297.755 136.418C296.402 136.921 295.435 137.307 294.508 137.655C294.16 137.81 293.812 137.926 293.464 138.081C292.343 138.506 291.067 139.008 289.057 140.013C287.704 140.632 286.738 141.134 285.887 141.56C285.23 141.907 284.689 142.217 284.186 142.526L278.62 145.657C276.03 147.087 274.754 147.783 273.44 148.44C272.01 149.175 270.695 149.909 268.299 151.417C267.641 151.842 266.984 152.306 266.327 152.77C261.882 155.824 256.856 159.264 246.342 160.81C245.53 160.926 244.409 161.004 243.404 161.004L243.443 160.965Z" fill="#006448"/>
<path d="M134.007 155.128C132.152 155.128 130.683 154.896 129.871 154.432C129.678 154.316 129.639 154.2 129.639 154.123C129.601 152.229 138.337 146.817 141.198 145.077C143.208 143.84 144.367 143.106 145.372 142.449C146.725 141.598 147.885 140.825 150.591 139.202C153.413 137.617 154.611 136.998 156.119 136.225C157.163 135.684 158.361 135.065 160.371 133.983C162.459 132.862 163.618 132.205 164.701 131.586C166.092 130.775 167.291 130.117 170.112 128.687C172.818 127.295 174.055 126.793 175.486 126.213C176.645 125.749 177.96 125.208 180.202 124.126C182.714 122.889 185.111 121.729 187.083 120.84L191.026 118.946C191.026 118.946 191.373 118.752 191.644 118.636C191.953 118.482 192.263 118.288 192.495 118.211C195.046 117.129 196.167 116.781 197.327 116.394C198.448 116.046 199.646 115.66 202.197 114.577C204.749 113.611 206.024 113.031 207.261 112.49C208.576 111.91 209.813 111.369 212.441 110.364L222.917 106.73C225.546 105.918 226.899 105.416 228.174 104.952C229.45 104.488 230.764 104.024 233.432 103.174C236.099 102.439 237.452 102.091 238.766 101.782C240.081 101.473 241.472 101.125 244.139 100.391C246.768 99.7335 248.082 99.3855 249.397 99.0376C250.788 98.6511 252.103 98.3032 254.847 97.646C257.631 97.0662 258.945 96.8729 260.375 96.6796C261.728 96.4863 263.081 96.3317 265.748 95.7905L277.5 93.6257C277.5 93.6257 277.848 93.5484 278.118 93.5098C278.466 93.4325 278.853 93.3165 279.085 93.3165C281.829 93.0072 283.066 92.9686 284.226 92.9299C285.424 92.9299 286.661 92.8526 289.406 92.5434C291.803 92.3114 293.156 92.1568 294.393 92.0022C295.978 91.8089 297.331 91.6543 300.423 91.4223C302.472 91.229 303.748 91.229 304.869 91.1904C305.255 91.1904 311.479 91.0358 311.479 91.0358L313.837 90.9584C315.113 90.9198 316.002 90.8811 316.852 90.8811H317.007C317.703 90.8811 318.36 90.8811 319.171 90.8811C320.061 90.8811 321.104 90.8811 322.535 90.9198C325.202 90.9971 326.671 91.0358 328.024 91.1904C329.377 91.345 330.768 91.4996 333.552 91.6929C335.6 91.8476 336.876 91.9249 337.997 91.9635C339.891 92.0408 341.128 92.1181 344.569 92.582C347.313 92.9299 348.705 93.2005 350.019 93.4711L351.024 93.6644C352.107 93.8577 353.382 94.0896 355.431 94.5148C358.949 95.172 364.361 96.0997 366.41 96.4863C366.873 96.5636 367.144 96.6023 367.221 96.6409C367.299 96.6409 371.319 97.2594 374.45 98.767C375.378 99.2309 375.455 99.5015 375.455 99.5015C375.455 99.5788 374.914 99.9267 373.136 99.9267C372.053 99.9267 370.121 99.8108 367.337 99.1536C365.211 98.6897 363.936 98.4578 362.776 98.3032L361.848 98.1485L356.359 97.4141C353.653 97.0275 352.3 96.8342 350.947 96.6023L348.666 96.2157C347.932 96.1384 347.081 96.0611 346.038 95.9451L345.38 95.8678C342.211 95.5972 340.858 95.5199 339.273 95.4426C338.074 95.3653 336.721 95.288 334.325 95.1333C331.542 95.0174 330.15 95.0174 328.758 95.0174C327.367 95.0174 326.014 95.0174 323.23 94.9014H322.071C319.829 94.9014 318.592 94.9401 317.277 95.0174C315.963 95.0947 314.649 95.1333 312.136 95.172C309.469 95.172 308.116 95.2493 306.763 95.288H306.569C305.178 95.3266 303.786 95.4039 301.042 95.5586C297.331 95.7905 296.403 95.8678 294.586 96.0998C293.697 96.2157 292.537 96.3317 290.759 96.525C290.643 96.525 290.488 96.525 290.257 96.525C289.947 96.525 289.522 96.525 289.135 96.5636L284.845 96.9502C282.68 97.2208 280.013 97.6074 277.229 98.0326C273.093 98.6511 272.088 98.8443 269.459 99.3855C268.609 99.5402 267.604 99.7721 266.29 100.004C264.202 100.429 262.926 100.661 261.844 100.816L260.878 100.97C259.525 101.241 258.133 101.55 255.466 102.207C252.798 102.865 251.446 103.213 250.131 103.56L249.01 103.908C247.966 104.218 246.729 104.604 244.797 105.145C242.129 105.88 240.815 106.305 239.501 106.692L234.205 108.47C231.615 109.32 230.262 109.784 228.986 110.248L227.942 110.673C226.937 111.06 225.739 111.562 223.806 112.258C221.564 113.07 220.288 113.534 219.129 113.92L218.588 114.114C217.273 114.616 215.998 115.08 213.408 116.124C209.89 117.515 209.117 117.902 207.339 118.675C206.527 119.062 205.483 119.526 203.898 120.221C203.782 120.26 203.628 120.337 203.434 120.376C203.125 120.492 202.738 120.608 202.391 120.763C202.197 120.84 201.888 120.994 201.501 121.149C200.767 121.458 199.685 121.884 198.409 122.502C196.437 123.391 193.963 124.551 191.451 125.749C186.967 128.03 186.541 128.262 182.869 130.195L181.632 130.852C179.197 132.205 177.998 132.823 176.761 133.442C175.524 134.06 174.249 134.717 171.891 136.148C168.876 137.926 167.754 138.622 166.247 139.627C165.319 140.207 164.237 140.941 162.497 142.024C160.216 143.415 159.095 144.188 158.013 144.961L157.858 145.077C157.317 145.464 155.655 146.508 153.915 147.629C151.905 148.904 149.702 150.296 148.504 151.108C143.981 154.123 137.912 155.205 134.123 155.205L134.007 155.128Z" fill="#006448"/>
<path d="M118.66 150.837C114.911 150.837 112.127 150.064 111.741 148.904C111.47 148.131 112.398 147.203 113.21 146.585C114.949 145.232 116.844 143.995 119.743 142.139C120.709 141.521 121.753 140.825 122.99 140.052C126.508 137.849 128.866 136.457 130.76 135.297C131.572 134.833 132.306 134.37 133.041 133.944C134.432 133.133 135.824 132.359 137.641 131.316C139.148 130.465 140.965 129.46 143.284 128.107C146.725 126.213 149.083 124.976 150.977 124.01C151.944 123.507 152.794 123.082 153.644 122.618C155.423 121.652 157.239 120.763 159.984 119.448C161.182 118.868 162.574 118.211 164.198 117.438L167.715 115.737C168.372 115.428 168.991 115.157 169.571 114.925L179.274 110.712C180.356 110.248 181.593 109.745 183.062 109.204C183.874 108.895 184.801 108.547 185.768 108.161L192.301 105.687C193.422 105.261 194.388 104.952 195.316 104.681C195.819 104.527 196.321 104.372 196.824 104.218L206.024 101.241C206.024 101.241 216.113 98.6124 216.152 98.6124C216.306 98.5737 216.577 98.4964 216.77 98.4191L217.157 98.3032C217.35 98.2645 217.466 98.2258 217.621 98.1872C217.775 98.1872 217.93 98.1099 218.201 98.0326L218.896 97.8006C219.554 97.5687 220.211 97.3754 220.868 97.1435C222.491 96.6409 224.231 96.293 225.777 95.9451C227.903 95.4812 229.991 95.0174 231.924 94.3215C232.117 94.2442 232.31 94.2056 232.426 94.0896C232.581 93.935 232.658 93.7417 232.619 93.5871C232.581 93.3938 232.426 93.2778 232.233 93.2392C232.233 93.2392 232.117 93.2392 232.078 93.2392C232.001 93.2392 231.924 93.2392 231.846 93.2392C230.764 93.3551 229.681 93.5098 228.56 93.6257C227.517 93.7804 226.434 93.8963 225.391 94.0123L224.386 94.1283C223.38 94.2442 222.414 94.3602 221.409 94.5148L218.162 95.056L217.814 95.1333C217.157 95.2493 215.842 95.4812 215.379 95.5972L205.096 98.1872L200.341 99.6948L195.741 101.202C195.239 101.396 194.697 101.55 194.195 101.705C193.267 102.014 192.262 102.323 191.141 102.749L184.531 105.223C180.124 106.808 177.534 107.851 175.253 108.779L168.991 111.33L168.141 111.678C167.522 111.949 166.826 112.219 166.092 112.529L162.535 114.191L161.337 114.771C156.776 116.936 154.302 118.134 151.905 119.448L141.468 125.053C138.414 126.754 136.288 127.953 134.471 128.919C133.195 129.615 132.151 130.195 131.069 130.775C130.489 131.084 129.948 131.432 129.33 131.741C127.203 132.939 124.768 134.331 120.825 136.766C117.037 139.202 110.001 143.724 97.3221 143.724C93.1472 143.724 88.663 143.222 83.9856 142.217C70.9971 139.434 60.8305 133.828 49.0403 127.334L45.3679 125.324C39.6081 122.154 34.1962 119.178 34.5441 117.67C34.7374 116.82 37.0568 115.776 46.8755 115.583C55.6119 115.428 55.6119 114.925 55.6505 114.5C55.6505 114.114 55.3026 113.92 54.3362 113.804C54.2975 113.804 54.2589 113.766 54.2202 113.727C50.0453 112.838 45.9864 112.374 41.8115 112.374C41.425 112.374 40.9997 112.374 40.5745 112.374H39.956C36.0904 112.374 31.297 111.988 30.5625 111.446C31.6449 109.939 39.0669 107.581 45.2519 106.808C47.9579 106.46 50.7025 106.15 53.2925 105.841C61.7582 104.797 66.2037 104.256 66.6289 104.102C66.7062 104.102 66.8609 104.024 67.0155 103.87C67.1315 103.754 67.1701 103.599 67.1314 103.444C67.1314 103.328 67.0155 103.174 66.9382 103.097C66.8222 103.019 66.7062 103.019 66.6289 102.981C66.0877 102.903 65.5079 102.865 64.9667 102.826C64.4255 102.826 63.8843 102.749 63.3818 102.71H62.8793C62.3767 102.594 61.8742 102.555 61.3717 102.555H60.3666C60.1733 102.555 59.9414 102.555 59.7481 102.555H59.5935C59.2842 102.517 58.6271 102.439 58.3565 102.439L54.0656 102.555C51.0117 102.671 49.5428 102.749 48.1125 102.865L42.1594 103.29C41.0384 103.367 40.1107 103.444 39.3375 103.522C38.0619 103.638 37.1728 103.715 36.245 103.715C35.2786 103.715 34.3895 103.715 33.6164 103.715C32.3021 103.715 28.2431 103.715 27.7406 103.058C27.7406 103.058 27.702 102.981 27.7406 102.865C28.1272 102.014 36.3996 98.1485 43.667 97.1435C45.7158 96.8729 46.8755 96.7569 47.9192 96.6409L49.0016 96.525C50.0067 96.409 51.1277 96.293 53.0219 96.1384C54.916 95.9451 56.0371 95.9065 57.0035 95.8292H57.6993C58.859 95.7132 60.0187 95.6359 62.3767 95.5586C63.3045 95.5199 64.0776 95.5199 64.6961 95.5199C65.1213 95.5199 66.6676 95.5199 66.6676 95.5199H67.402C68.0592 95.5199 68.7937 95.5199 69.7601 95.5972C70.3013 95.5972 70.9584 95.6745 71.7316 95.6745C72.3114 95.7132 73.9736 95.7905 75.5585 95.8678C76.9888 95.9451 78.767 96.0224 78.9603 96.0611C79.6175 96.2157 80.2746 96.3317 80.9704 96.3317C81.2024 96.3317 81.4343 96.3317 81.6663 96.293C81.7436 96.293 81.8982 96.293 82.0528 96.1771C82.2847 96.0224 82.3621 95.7132 82.2074 95.4812C82.2074 95.4039 82.0142 95.288 81.9755 95.2493C81.5503 95.0174 81.0864 94.8627 80.6225 94.6695C80.236 94.5148 79.8881 94.3602 79.5015 94.2056C78.9603 93.9736 78.4191 93.819 77.9166 93.6644L77.4914 93.5484C77.2208 93.4711 76.9115 93.3938 76.6409 93.3165C75.9451 93.0845 75.6359 92.9686 75.4426 92.9686L72.0408 92.582H71.229C69.7214 92.4274 68.7164 92.3887 67.7886 92.3887C67.5953 92.3887 67.3634 92.3887 67.1701 92.3887C66.8609 92.3887 66.5516 92.3887 66.2037 92.3887H64.8894C64.1936 92.3887 63.4204 92.3887 62.4154 92.3887C62.4154 92.3887 56.5783 92.4274 55.7278 92.466C54.2589 92.466 52.3647 92.5047 50.8185 92.5047C50.4319 92.5047 49.2722 92.5047 49.2722 92.5047C44.3629 92.5047 38.1005 93.4711 33.0752 94.2829C29.944 94.7854 27.2381 95.2107 25.9238 95.2107C25.4212 95.2107 25.3053 95.1333 25.2666 95.1333C25.6145 93.8577 32.65 90.6492 39.3762 89.0256C41.1157 88.6004 42.8166 88.3298 45.6772 87.9046L48.6537 87.4407C52.3261 86.8222 54.5295 86.6289 56.4623 86.4743C57.0035 86.4357 57.506 86.397 58.0086 86.3583L64.2709 85.8172L69.3735 85.6625C71.2677 85.6239 72.698 85.5466 73.9736 85.5466C75.0173 85.5466 75.9064 85.5466 76.7182 85.6625L81.357 85.8945C81.8595 85.8945 82.4007 85.9331 82.9806 85.9718L89.1269 86.7449C90.0547 86.8609 90.8278 86.9382 91.485 87.1315L95.196 87.9433C97.2448 88.2912 99.2162 88.9483 102.773 90.108L104.126 90.5332L109.228 92.6207L112.862 94.3989C113.828 94.8627 114.795 95.3653 115.954 96.0224C116.38 96.293 116.882 96.525 117.385 96.8342C118.351 97.3754 119.472 97.9939 120.786 98.8057L126.585 102.362C126.701 102.439 126.894 102.517 127.049 102.633L127.319 102.787C127.319 102.787 127.551 102.942 127.629 102.981C127.745 103.058 127.861 103.135 128.054 103.251C128.556 103.522 129.059 103.754 129.561 103.947C129.755 104.024 129.987 104.102 130.18 104.179C131.378 104.681 132.538 105.339 133.698 105.996L133.814 106.073C135.399 106.885 136.945 107.619 138.568 108.122C138.723 108.161 138.839 108.199 138.994 108.199C139.264 108.199 139.419 108.083 139.496 107.89C139.535 107.774 139.496 107.503 139.419 107.387C139.342 107.271 139.264 107.233 139.148 107.155C138.414 106.653 137.679 106.189 136.945 105.725C136.21 105.261 135.515 104.797 134.819 104.334L134.123 103.831C133.504 103.367 132.886 102.903 132.229 102.478C131.997 102.323 131.726 102.169 131.456 102.014C130.992 101.705 130.489 101.434 130.025 101.086L129.793 100.893C129.368 100.545 128.518 99.9267 128.209 99.7334L122.449 96.0998C121.057 95.2107 119.897 94.5535 118.854 93.9736C118.39 93.703 117.926 93.4711 117.539 93.2392C116.38 92.5434 115.336 92.0408 114.37 91.5769L110.543 89.7214L105.247 87.518C104.164 87.1701 103.236 86.8609 102.386 86.5516C99.6414 85.6239 97.8246 85.0054 95.9691 84.6188L92.1808 83.691C91.1757 83.4205 90.016 83.2658 88.663 83.1112C88.0059 83.0339 87.2714 82.9179 86.4983 82.802L83.3285 82.3767L80.7771 82.2608L76.8729 82.1061C76.1384 82.0675 75.4039 82.0288 74.6308 82.0288C73.5484 82.0288 72.3114 82.0288 70.8038 82.1061C69.7987 82.1061 68.639 82.1834 67.2861 82.1834H64.1163L61.6036 82.4154L57.7379 82.6473L56.4623 82.7246C54.4135 82.8406 52.0941 82.9566 48.1898 83.5751C43.6284 84.2709 41.1157 84.6575 38.7577 85.1987C36.3996 85.7398 34.0803 86.3197 29.4415 87.2088C29.2869 87.2088 29.1322 87.2474 29.0163 87.2474C29.2869 86.7062 30.9104 85.2373 33.5391 83.7297L54.0656 71.8235C58.5111 69.2336 62.9952 66.5663 67.3634 63.9763C75.2493 59.2602 83.4058 54.3895 91.6009 49.944C98.5204 46.1944 104.899 43.1019 111.161 40.5119C117.771 37.7286 124.923 34.984 132.113 33.7084C134.51 33.2831 136.674 33.0512 138.762 33.0512C140.153 33.0512 141.468 33.1285 142.782 33.3218C146.532 33.863 149.972 35.3319 153.103 36.8395C159.713 40.0094 166.324 43.5271 173.359 47.6633C175.485 48.9003 177.65 50.2919 179.737 51.6063C183.642 54.1189 187.701 56.7089 191.992 58.6804C195.509 60.304 198.408 61.0771 201.114 61.0771C201.578 61.0771 202.042 61.0771 202.506 60.9998C205.715 60.6519 208.652 59.1829 211.474 57.7526L212.132 57.4434C216.461 55.2786 220.752 52.9206 224.888 50.6785C226.782 49.6348 228.676 48.6297 230.571 47.6247C236.601 44.3775 243.173 41.169 250.208 39.5455C253.416 38.811 256.78 38.4244 260.181 38.4244C272.861 38.4244 283.955 43.4498 291.068 47.702C294.47 49.7121 297.755 51.9928 300.964 54.2349C303.631 56.0904 306.376 57.9846 309.159 59.7241C314.571 63.1259 320.292 66.2184 325.859 69.1949L328.68 70.7025C335.523 74.4135 342.481 77.738 349.478 80.5985C351.874 81.5649 354.31 82.4927 356.668 83.3431C357.789 83.7684 358.871 84.1549 359.992 84.5802C374.527 90.0694 377.194 94.0896 377.04 94.7854C377.04 94.7854 377.04 94.8627 376.846 94.8627C375.107 94.7468 372.208 94.4375 367.917 93.3938C367.736 93.3423 367.62 93.3165 367.569 93.3165C365.791 92.8526 360.611 91.8476 356.358 90.9971C353.884 90.4946 352.454 90.3399 351.217 90.1853L345.264 89.4122L343.37 89.1416C339.659 88.6391 339.002 88.5231 334.131 88.1365C331.348 87.9046 329.956 87.8659 328.526 87.7886L322.921 87.7113C320.137 87.634 318.707 87.634 317.315 87.634C317.045 87.634 316.774 87.634 316.504 87.634C315.576 87.634 314.494 87.634 312.947 87.7113H311.71C308.927 87.8273 307.497 87.9046 306.105 87.9819C305.641 87.9819 305.177 88.0206 304.636 88.0592C303.592 88.0979 302.355 88.1752 300.5 88.3298C298.026 88.5231 296.596 88.5618 295.359 88.6391C293.774 88.7164 292.421 88.755 289.328 89.0643L278.968 90.3399H278.736C278.388 90.3399 277.886 90.4173 277.345 90.4946C276.997 90.5719 276.224 90.6492 275.18 90.8038C272.938 91.1131 269.188 91.6156 265.361 92.3114L261.496 93.0845C259.331 93.5098 258.171 93.7417 254.422 94.5535C251.793 95.2106 250.401 95.4812 249.087 95.7518C247.657 96.0611 246.304 96.3317 243.52 97.0275C240.815 97.8006 239.462 98.1872 238.147 98.6124C236.833 99.0376 235.48 99.4242 232.813 100.197C230.145 101.048 228.792 101.473 227.478 101.937C226.164 102.401 224.849 102.826 222.182 103.676C219.515 104.604 218.162 105.107 216.886 105.609C215.611 106.112 214.296 106.614 211.706 107.542C209.155 108.508 207.841 108.972 206.565 109.436C205.173 109.939 203.898 110.364 201.23 111.408L191.644 115.505C191.644 115.505 191.373 115.621 191.18 115.66C190.871 115.776 190.484 115.892 190.097 116.085L186.116 117.786C183.487 118.907 181.168 119.951 179.042 120.994L177.843 121.574C173.978 123.43 173.591 123.623 169.03 125.942C167.213 126.87 166.053 127.411 165.087 127.914C163.347 128.764 162.226 129.306 159.095 131.006C156.428 132.437 155.191 133.21 153.915 133.983C152.794 134.679 151.634 135.375 149.431 136.612C146.068 138.622 145.063 139.24 143.169 140.439C142.357 140.941 141.352 141.598 139.921 142.487C138.182 143.57 137.177 144.188 136.365 144.652C134.973 145.503 134.2 145.966 131.185 147.861C128.402 149.639 123.608 150.76 118.97 150.76L118.66 150.837ZM83.6377 77.5447C90.248 77.5447 95.2733 78.3951 104.164 81.1011C113.094 83.807 120.555 88.4844 127.783 93.0072C133.388 96.525 139.187 100.159 145.565 102.787C145.72 102.865 145.952 102.981 146.145 103.135C146.648 103.444 147.15 103.792 147.614 103.792C147.846 103.792 148.039 103.715 148.194 103.56C148.426 103.328 148.542 102.942 148.503 102.362C148.503 102.246 148.426 102.091 148.31 102.053C143.632 99.3469 139.187 96.3317 134.896 93.3551C125.193 86.7449 115.993 80.4826 104.319 77.4287C97.3994 75.6505 90.6732 74.7614 83.715 74.7614C77.7233 74.7614 71.461 75.4186 64.5415 76.7329C64.3869 76.7329 64.2709 76.8875 64.2322 77.0808C64.2322 77.3514 64.2709 77.5833 64.4642 77.7766C64.8507 78.2018 65.6239 78.3951 67.0155 78.3951C68.4071 78.3951 70.1853 78.2018 71.3063 78.0472C71.8089 77.9699 72.1568 77.9313 72.3501 77.9313L73.8577 77.8539C77.7233 77.6607 80.7771 77.5447 83.5604 77.5447H83.6377ZM88.4698 68.5378C90.0547 68.5378 91.9102 68.5378 94.1136 68.6151C101.613 68.8084 113.055 73.2152 121.289 77.2741C131.069 82.1061 142.009 89.2189 152.369 96.2157C152.446 96.2544 152.523 96.293 152.601 96.293C152.678 96.293 152.755 96.293 152.833 96.2157C153.258 95.9065 153.374 95.5586 153.374 95.288C153.374 94.1283 151.557 92.7753 149.701 91.4996C149.431 91.3064 149.199 91.1517 149.083 91.0744C128.015 74.7614 109.074 66.5276 92.7606 66.5276C91.4463 66.5276 90.1706 66.5663 88.895 66.6823H88.6244C87.3487 66.7982 84.952 66.9915 81.5889 67.9966C81.3957 68.0352 81.2797 68.2285 81.3183 68.4218C81.3183 68.6151 81.5116 68.731 81.7049 68.731C81.7049 68.731 83.9083 68.5378 88.5471 68.5378H88.4698ZM94.5002 59.6854C90.5572 59.6854 90.5572 59.956 90.5572 60.3426C90.5572 60.8451 90.5572 61.193 102.695 62.1981C116.418 63.3191 129.948 71.7076 143.014 79.8641C148.039 82.9952 152.755 85.9331 157.394 88.4071C157.471 88.4458 157.665 88.5618 157.935 88.755C159.868 89.9534 165.744 93.6644 168.798 93.6644C168.991 93.6644 169.184 93.6644 169.378 93.6257C169.532 93.6257 169.648 93.4711 169.687 93.3165C169.725 93.1619 169.609 93.0072 169.494 92.9299C162.69 89.4509 156.118 85.0054 149.74 80.7145C141.12 74.9161 132.229 68.8857 122.526 65.0587C114.64 61.9275 106.6 60.2266 97.9792 59.8401C96.8582 59.8014 95.6212 59.7628 94.5002 59.7628V59.6854ZM173.978 88.4844C173.978 88.4844 173.63 88.6004 173.591 88.7937C173.552 88.987 173.668 89.1803 173.823 89.2189L174.132 89.3349C174.132 89.3349 174.21 89.3349 174.287 89.3349C174.364 89.3349 174.442 89.3349 174.48 89.2962C174.596 89.2189 174.673 89.1416 174.673 89.0256C174.673 89.0256 174.673 88.9097 174.673 88.871C174.673 88.7164 174.519 88.5231 174.326 88.5231C174.326 88.5231 173.978 88.5231 173.939 88.5231L173.978 88.4844ZM167.677 87.0928C167.677 87.0928 167.367 87.1701 167.329 87.3248C167.251 87.518 167.329 87.7113 167.522 87.7886C167.638 87.8659 167.793 87.9046 167.947 87.9819C167.986 87.9819 168.063 87.9819 168.102 87.9819C168.218 87.9819 168.372 87.9046 168.45 87.7886C168.527 87.6727 168.527 87.518 168.488 87.4021C168.45 87.2861 168.372 87.1701 168.256 87.1315L167.831 87.0155H167.754L167.677 87.0928ZM119.588 49.2869C119.588 49.2869 119.24 49.4415 119.24 49.5961C119.24 49.7894 119.318 49.944 119.472 50.0214L138.259 56.9408C146.261 60.9225 153.49 64.9427 161.105 69.1949C171.426 74.9547 182.096 80.9465 195.161 86.8609C195.2 86.8609 195.277 86.8609 195.316 86.8609C195.432 86.8609 195.509 86.8609 195.587 86.7449C195.703 86.6289 195.741 86.4743 195.664 86.3197C194.968 84.7734 193.267 83.807 191.76 82.9566C191.489 82.802 191.218 82.6473 190.948 82.4927C178.578 74.9934 168.604 69.5042 157.471 63.5511C156.35 62.9712 155.229 62.3141 154.031 61.6956C143.826 56.1677 131.146 49.2482 120.245 49.2482C120.013 49.2482 119.781 49.2482 119.588 49.2482V49.2869ZM118.738 56.6316C118.738 56.6316 118.428 56.7476 118.39 56.9022C118.351 57.0955 118.39 57.2888 118.583 57.3661L135.901 65.3679L150.204 73.3312L172.586 86.7063C172.586 86.7063 172.702 86.7449 172.779 86.7449C172.818 86.7449 172.895 86.7449 172.934 86.7449C173.05 86.7062 173.127 86.5903 173.166 86.4743C173.436 85.1986 170.421 82.802 162.033 77.6607C161.26 77.1968 160.719 76.8489 160.487 76.6943C151.054 70.1227 144.367 65.9864 138.066 62.8553C132.151 59.956 125.116 57.6753 118.776 56.6703C118.776 56.6703 118.738 56.6703 118.699 56.6703L118.738 56.6316ZM282.95 80.5599C281.906 80.5599 280.747 80.6372 280.089 80.7145C279.819 80.7145 279.355 80.8305 279.084 80.8691C278.814 80.9078 278.659 80.9078 278.543 80.9464C278.389 80.9464 278.195 80.9464 277.963 81.0238C277.267 81.1397 276.61 81.333 275.953 81.5263C275.683 81.6036 275.451 81.6809 275.18 81.7582C274.291 82.0288 273.402 82.2608 272.474 82.4927C271.74 82.686 271.005 82.8793 270.309 83.0725C267.797 83.7684 265.98 84.4642 264.434 85.3919C264.279 85.4692 264.086 85.5852 263.97 85.7398C263.854 85.8945 263.815 86.0877 263.892 86.281C263.97 86.4357 264.124 86.5516 264.356 86.5903C264.356 86.5903 264.627 86.5903 264.704 86.5516L267.758 85.7012C268.763 85.4306 269.807 85.1986 270.812 85.0054C272.088 84.7734 273.325 84.5415 274.6 84.3482C275.644 84.1549 276.688 84.0003 277.693 83.923L280.399 83.7684H280.708C281.442 83.6524 282.293 83.5751 282.795 83.5364C283.414 83.4978 284.032 83.4591 284.612 83.4205C285.579 83.3818 286.545 83.3431 287.511 83.3431H288.323L290.101 83.4205C290.411 83.4205 290.759 83.4591 291.106 83.4978C291.686 83.5364 292.266 83.5751 292.846 83.6524C293.967 83.7684 294.817 83.923 295.591 84.0776C295.784 84.0776 295.977 84.1549 296.132 84.1549H296.248C296.634 84.1163 296.905 83.923 296.982 83.6524C297.06 83.3818 296.905 83.0726 296.596 82.8406C296.402 82.686 296.17 82.6473 295.939 82.57L295.32 82.3767C294.856 82.2221 294.392 82.1061 293.928 81.9902L293.465 81.8742C292.846 81.7196 292.227 81.565 291.57 81.449C290.295 81.1784 288.98 81.0238 287.743 80.9078C287.164 80.8691 286.893 80.8305 286.661 80.7918C286.352 80.7532 286.12 80.7145 285.385 80.6759C285.269 80.6759 285.076 80.6759 284.883 80.6759C284.535 80.6759 284.071 80.6759 283.53 80.6759C283.337 80.6759 283.143 80.6759 282.95 80.6759V80.5599ZM135.862 45.8851C135.36 45.8851 134.896 45.8851 134.394 45.9238C134.239 45.9238 134.084 46.0784 134.046 46.233C134.046 46.3877 134.123 46.5809 134.278 46.6583L142.705 50.3693C148.928 53.6937 155.229 57.3274 161.298 60.8451C177.07 69.968 193.345 79.3615 211.049 84.5415C211.049 84.5415 211.126 84.5415 211.165 84.5415C211.32 84.5415 211.436 84.4642 211.513 84.3095C211.59 84.1163 211.513 83.923 211.358 83.8457L203.82 79.5935C190.755 74.6455 179.583 68.0352 167.793 60.9998C160.448 56.6316 152.871 52.1475 144.715 48.0112C141.893 46.5809 138.916 45.8465 135.901 45.8465L135.862 45.8851ZM149.508 43.7204C149.238 43.7204 148.928 43.7204 148.658 43.7204C148.503 43.7204 148.348 43.875 148.31 44.0296C148.31 44.1842 148.348 44.3775 148.503 44.4548L181.361 62.3141C182.791 63.0872 184.222 63.783 185.575 64.3629C191.876 67.0302 196.862 69.5428 201.269 71.7462C206.99 74.6455 211.938 77.1195 218.007 79.0909C221.216 80.096 223.922 81.0624 226.125 81.7969C229.991 83.1112 232.31 83.923 233.47 83.923C233.856 83.923 234.166 83.807 234.32 83.6137C234.475 83.4205 234.514 83.1885 234.475 82.9179C234.475 82.7633 234.359 82.686 234.243 82.6087C222.375 77.9699 210.16 72.7126 197.983 66.9142C191.953 64.0536 185.691 60.6519 179.583 57.3274C171.852 53.1139 163.85 48.7843 156.234 45.4986C153.915 44.4935 151.828 43.6817 149.47 43.6817L149.508 43.7204ZM257.359 79.2069C257.359 79.2069 257.205 79.2842 257.089 79.3229H256.973C256.973 79.3229 256.818 79.4002 256.702 79.4389C256.509 79.5548 256.316 79.6708 256.161 79.8254L255.968 79.98C255.62 80.2506 255.195 80.4053 254.731 80.5985C254.19 80.8305 253.532 81.1011 252.991 81.7196C252.953 81.7582 252.837 81.9129 252.837 82.1061C252.837 82.2994 252.914 82.5314 253.069 82.686C253.146 82.7246 253.262 82.7633 253.339 82.7633L253.88 82.6473C254.344 82.5314 254.808 82.454 255.272 82.3767C255.659 82.2994 256.045 82.2221 256.432 82.1448L256.741 82.0675C256.741 82.0675 257.089 81.9515 257.282 81.9129C257.591 81.8742 257.978 81.7969 258.133 81.7582C258.828 81.5263 259.563 81.2557 260.375 81.0238L263.583 79.9414C264.356 79.6708 265.129 79.4002 266.792 78.975C268.802 78.4338 269.614 78.3178 270.696 78.1245C271.353 78.0086 272.126 77.8539 273.363 77.622C274.446 77.4287 275.18 77.2741 275.799 77.1581C276.997 76.9262 277.731 76.7716 279.935 76.5396C281.172 76.4623 281.906 76.4237 282.486 76.4237C282.718 76.4237 282.95 76.4237 283.182 76.4237C283.568 76.4237 283.955 76.4237 284.38 76.4237C284.921 76.4237 285.579 76.4237 286.506 76.501C287.821 76.501 288.594 76.5783 289.29 76.5783L291.184 76.6556C291.648 76.7329 292.266 76.8102 293.078 76.9262C293.58 77.0035 293.967 77.1195 294.392 77.2354C294.663 77.3128 294.972 77.4287 295.359 77.506C295.552 77.5447 295.784 77.5833 295.977 77.622L296.634 77.6993C296.944 77.6993 297.214 77.7766 297.485 77.8153L298.219 77.9313C298.76 78.0086 299.34 78.0859 299.881 78.1632C299.881 78.1632 299.92 78.1632 299.959 78.1632C300.113 78.1632 300.191 78.1632 300.268 78.0859C300.423 78.0086 300.577 77.8539 300.655 77.6607C300.732 77.4674 300.732 77.2354 300.655 77.0808C300.577 76.9262 300.423 76.8489 300.345 76.8102L298.142 75.7665C298.142 75.7665 297.949 75.6892 297.91 75.6505C297.794 75.5732 297.717 75.5346 297.485 75.4186C297.06 75.264 296.325 74.9934 295.977 74.9161C295.745 74.8774 295.513 74.8001 295.243 74.7228C294.74 74.5681 294.16 74.4135 293.542 74.2976L291.493 73.9883L289.869 73.8723C289.058 73.8337 288.207 73.7564 286.584 73.7177C285.965 73.7177 285.463 73.679 284.999 73.679C284.651 73.679 284.342 73.679 284.071 73.679C283.839 73.679 283.646 73.679 283.414 73.679H282.873C282.254 73.679 281.597 73.7177 280.631 73.795L279.626 73.8723H279.084C276.146 74.2589 275.992 74.2589 272.745 74.8387C269.845 75.4572 269.459 75.5346 267.294 76.1144L266.057 76.4237C264.395 76.8875 263.583 77.1195 262.771 77.3901C261.96 77.622 261.148 77.8926 259.524 78.4338C258.906 78.6271 258.326 78.8203 257.823 79.0136L257.63 79.0909C257.63 79.0909 257.359 79.1683 257.282 79.2069H257.359ZM249.28 73.7177C248.816 73.8723 248.353 74.0656 247.773 74.3362C247.541 74.4522 247.231 74.6068 247 74.7228L246.188 75.148L244.873 75.8825L244.216 76.269C243.559 76.6556 242.902 77.0808 242.245 77.4674C242.168 77.506 242.013 77.622 241.936 77.7766C241.82 77.9699 241.82 78.2019 241.936 78.4338C242.013 78.6271 242.206 78.7817 242.438 78.8203C242.438 78.8203 242.477 78.8203 242.515 78.8203C242.709 78.8203 242.786 78.8204 242.863 78.7817L245.994 77.738C246.226 77.6607 246.304 77.6607 246.381 77.622C246.497 77.622 246.613 77.5833 246.884 77.506C247.657 77.2354 248.468 76.9648 248.855 76.8102C249.319 76.6169 249.821 76.4237 250.363 76.1917C250.865 75.9984 251.406 75.8052 251.909 75.5732L256.741 73.4471C257.63 73.0606 258.635 72.5967 260.413 71.9782C264.24 70.6252 264.665 70.5479 267.874 69.7361L269.188 69.4269C271.392 68.963 272.513 68.7697 273.634 68.6537L275.489 68.4218L278.157 68.2672C279.394 68.2672 280.283 68.2672 281.056 68.2672C282.911 68.2672 283.8 68.3445 286.777 68.6151H287.241C291.338 69.2336 291.725 69.3109 295.165 70.0454L296.248 70.2773L299.456 71.0504C299.534 71.0504 299.611 71.0504 299.727 71.0891H299.843C299.843 71.0891 300.113 71.205 300.268 71.2437C300.539 71.2824 300.848 71.2824 301.118 71.2824H301.428C302.008 71.2824 302.587 71.4756 303.206 71.6303C304.018 71.8235 304.675 71.9782 305.371 71.9782C305.564 71.9782 305.757 71.9782 305.95 71.9782C306.028 71.9782 306.221 71.9782 306.376 71.8235C306.53 71.6689 306.646 71.3983 306.53 71.1277C306.492 71.0504 306.337 70.8958 306.26 70.8958L305.757 70.7025C305.139 70.4706 304.52 70.2 303.902 69.9294C303.399 69.7361 302.935 69.5042 302.394 69.3495L301.969 69.1949C301.698 69.1176 301.466 69.0403 301.196 68.9243C301.118 68.9243 300.345 68.5764 300.113 68.4991L296.866 67.6873C293.039 66.8755 292.382 66.7596 289.599 66.4117L287.55 66.1411C286.352 66.0251 285.463 65.9091 284.689 65.8318C283.414 65.6772 282.602 65.5999 281.404 65.5612C280.476 65.4452 279.394 65.4066 278.157 65.4066C277.847 65.4066 277.538 65.4066 277.229 65.4066C275.605 65.4066 273.943 65.5612 272.281 65.7931C271.856 65.8318 271.469 65.9091 271.044 65.9864H270.889C269.15 66.1024 267.565 66.2957 266.057 66.6049C262.694 67.3008 259.176 68.5764 255.272 70.5092C253.571 71.3597 251.793 72.3261 249.512 73.6404C249.435 73.6791 249.358 73.7564 249.319 73.8337L249.28 73.7177ZM273.827 57.7913C272.281 57.7913 271.005 57.9073 268.299 58.2552C267.255 58.4098 266.366 58.5644 265.477 58.7963H265.323C264.318 58.9123 263.351 59.1829 262.539 59.3762L261.728 59.5695C260.916 59.7628 260.143 59.9947 259.331 60.2266C258.751 60.3813 258.133 60.5745 257.553 60.7292C257.05 60.8838 256.509 61.0384 256.006 61.193C252.218 62.2368 247.773 63.6671 243.791 66.1797C243.327 66.4503 242.129 67.1848 242.129 67.1848C241.51 67.4167 240.892 67.7646 240.389 68.1125C240.041 68.3058 239.655 68.5378 239.307 68.7697C239.191 68.847 239.114 68.8857 238.998 68.963L238.804 69.0789C238.109 69.4655 237.374 69.7748 236.64 70.1227C235.751 70.5092 234.823 70.9345 233.934 71.437C233.199 71.8622 232.465 72.4034 231.769 73.0219L231.614 73.0992L231.305 73.2538C231.305 73.2538 231.073 73.3698 230.957 73.5244C230.841 73.7177 230.803 73.9496 230.88 74.1816C230.957 74.4135 231.15 74.5681 231.382 74.6068H231.498C231.614 74.6068 231.73 74.6068 231.808 74.5682L235.171 73.5631C235.403 73.4858 235.519 73.4858 235.596 73.4471C235.712 73.4471 235.828 73.4085 236.137 73.3312C236.601 73.1765 237.761 72.79 238.225 72.5967C238.65 72.4034 239.075 72.2488 239.539 72.0555C240.157 71.8235 240.815 71.553 241.51 71.2437C243.752 70.2386 244.873 69.6588 245.956 69.1176C247.038 68.5764 248.159 68.0352 250.401 67.0302C254.383 65.2906 254.808 65.136 258.094 63.899L259.447 63.3965L260.645 63.0099C262.153 62.5074 263.081 62.1981 264.008 62.0048L264.627 61.8502C265.632 61.6183 266.714 61.309 268.686 61.0384C272.242 60.5745 273.131 60.4586 275.296 60.4586C275.914 60.4586 276.61 60.4586 277.499 60.4586H278.234C279.123 60.5745 279.857 60.6519 280.515 60.6905C281.52 60.7678 282.254 60.8451 282.989 60.9611C283.375 61.0384 283.8 61.1157 284.264 61.193C285.153 61.3477 286.197 61.541 287.743 61.8889L290.527 62.6233C290.527 62.6233 290.565 62.6233 290.604 62.662C290.681 62.7006 290.797 62.7393 290.913 62.7393C290.913 62.7393 290.913 62.7393 290.952 62.7393C290.952 62.7393 291.068 62.7393 291.106 62.7393C291.184 62.7393 291.3 62.7393 291.377 62.778H291.532C291.532 62.778 291.609 62.8166 291.648 62.8553C291.725 62.8553 291.802 62.9326 291.957 62.9326C292.266 62.9712 292.537 63.0099 292.846 63.0099H293.155C293.774 63.1259 294.392 63.2805 295.011 63.4738C295.977 63.783 296.75 63.9763 297.601 63.9763C297.678 63.9763 297.755 63.9763 297.871 63.9763C297.949 63.9763 298.142 63.9763 298.297 63.8217C298.49 63.6671 298.606 63.3965 298.49 63.1259C298.49 63.0486 298.297 62.8939 298.219 62.8553L295.745 61.7342C295.243 61.5023 294.74 61.2317 294.199 61.0384L293.774 60.8838C293.503 60.7678 293.233 60.6905 292.962 60.5745L292.807 60.4972C292.537 60.3813 291.996 60.1493 291.802 60.1107L288.362 59.1829C286.584 58.7964 285.424 58.6031 284.458 58.4484C284.071 58.3711 283.762 58.3325 283.414 58.2552C282.718 58.1392 282.061 58.1005 281.21 58.0232C280.476 57.9459 279.587 57.8686 278.427 57.7526C277.267 57.7526 276.417 57.7526 275.683 57.714C274.987 57.714 274.407 57.714 273.866 57.714L273.827 57.7913ZM250.595 53.5391C249.783 53.771 248.971 54.0803 248.237 54.4282L247.734 54.6215C247.231 54.8534 246.69 55.0467 246.188 55.24C245.84 55.3559 245.492 55.5106 245.144 55.6265L242.399 56.7089C240.621 57.4047 238.766 58.1778 236.91 59.0283C235.982 59.4535 235.055 59.8787 234.127 60.3426C233.277 60.7292 232.465 61.1157 231.614 61.541C229.913 62.3141 228.213 63.2805 226.55 64.4015C226.357 64.4788 226.048 64.6335 225.816 64.7494L223.612 65.8705L222.955 66.2184C222.259 66.6049 221.564 66.9528 220.906 67.3394C220.829 67.3781 220.675 67.4554 220.597 67.61C220.481 67.8033 220.443 68.0352 220.52 68.2672C220.597 68.4991 220.791 68.6537 221.022 68.6924C221.022 68.6924 221.138 68.6924 221.177 68.6924C221.293 68.6924 221.409 68.6924 221.486 68.6537L224.733 67.6873C224.965 67.61 225.043 67.61 225.159 67.61C225.275 67.61 225.391 67.61 225.661 67.494C225.932 67.4167 227.207 66.9915 227.671 66.7982C228.097 66.6049 228.522 66.4503 228.986 66.2957C229.566 66.0637 230.223 65.8318 230.841 65.5612C233.122 64.5561 234.166 64.015 235.287 63.4738C236.292 62.9712 237.374 62.4687 239.384 61.541C243.134 59.8787 243.598 59.6854 246.574 58.4871L248.043 57.9073L248.7 57.6753C252.411 56.2837 252.643 56.2064 256.857 55.0467C257.282 54.9307 257.669 54.8534 258.017 54.7761C258.596 54.6215 259.06 54.5055 259.524 54.4282C259.524 54.4282 261.766 54.0416 261.998 54.003C262.385 53.9256 262.771 53.8483 263.235 53.8097L265.98 53.5391C268.145 53.4231 269.304 53.3845 270.387 53.3845C271.469 53.3845 272.551 53.4231 274.446 53.5391H275.18L278.466 53.9643C278.543 53.9643 278.62 53.9643 278.736 53.9643C278.775 53.9643 278.891 54.003 278.968 54.003C278.968 54.003 279.007 54.003 279.046 54.003C279.123 54.003 279.239 54.003 279.355 54.0416C279.626 54.0416 279.819 54.0416 280.012 54.003C280.167 54.003 280.321 53.9643 280.476 53.9643H280.708C281.249 53.9643 281.752 54.0416 282.331 54.1189C282.989 54.2349 283.53 54.2736 284.071 54.2736C284.458 54.2736 284.805 54.2736 285.153 54.1576C285.231 54.1576 285.424 54.1189 285.54 53.9643C285.695 53.8097 285.772 53.5004 285.617 53.2685C285.579 53.1912 285.385 53.0752 285.308 53.0366L284.689 52.8433C284.071 52.65 283.452 52.4954 282.795 52.3021C282.293 52.1475 281.752 51.9928 281.21 51.8382L279.896 51.5676H279.78C279.51 51.4516 278.968 51.3357 278.736 51.297L275.373 50.9105C273.402 50.7945 272.126 50.7558 271.044 50.7558C269.961 50.7558 268.956 50.7945 267.217 50.9105L265.671 50.9878L262.81 51.2584C262.346 51.297 261.921 51.3743 261.573 51.413C261.341 51.413 258.944 51.7995 258.944 51.7995C258.558 51.8769 258.094 51.9542 257.63 52.0701C256.084 52.2634 254.422 52.5727 252.798 52.9592C252.179 53.1139 251.6 53.2685 250.981 53.4618C250.865 53.4618 250.788 53.5391 250.672 53.6164L250.595 53.5391ZM87.1941 64.015C87.1941 64.015 86.8462 64.2082 86.8462 64.4015C86.8462 64.5948 87.0008 64.7494 87.1554 64.7881H87.3874C87.5807 64.7881 87.7353 64.6335 87.7739 64.4402C87.7739 64.2469 87.658 64.0536 87.4647 64.015C87.4647 64.015 87.426 64.015 87.3874 64.015C87.3487 64.015 87.3101 64.015 87.2714 64.015H87.1941ZM262.153 43.6431C261.766 43.6431 261.341 43.6431 261.109 43.6431C260.723 43.6817 260.336 43.6817 259.911 43.7204C259.292 43.7204 258.674 43.7204 257.978 43.8363C254.654 44.3775 253.88 44.6095 251.793 45.1893C251.174 45.3439 250.44 45.5759 249.512 45.8465L248.237 46.233C246.922 46.6582 246.149 46.8902 245.376 47.1994C245.105 47.3154 244.835 47.3927 244.564 47.5087C243.791 47.7793 242.825 48.1272 241.356 48.7843C239.732 49.4802 238.804 49.9054 237.993 50.3306L237.451 50.6012C236.485 51.0651 235.519 51.529 233.624 52.4954L226.086 56.3997L224.54 57.1728C222.221 58.3325 221.718 58.5644 218.51 59.8787L217.775 60.188C217.041 60.4972 216.384 60.7678 215.765 60.9225C215.688 60.9225 215.572 60.9998 215.495 61.0384L215.301 61.1157C215.301 61.1157 215.147 61.1157 215.031 61.193C214.799 61.309 214.567 61.4636 214.374 61.5796L214.103 61.7342C213.678 62.0435 213.175 62.1981 212.634 62.3527C211.706 62.6233 210.972 62.8553 210.315 63.3965C210.276 63.4351 210.121 63.5511 210.083 63.7444C210.005 63.9376 210.083 64.2469 210.276 64.4015C210.353 64.4402 210.469 64.4788 210.547 64.4788L211.204 64.4015C211.784 64.3242 212.363 64.2469 212.982 64.1696H213.369C213.755 64.0923 214.103 64.0536 214.49 63.9376L214.876 63.8217C215.108 63.7444 215.34 63.6671 215.611 63.6284C215.958 63.5511 216.5 63.4738 216.654 63.4351C217.427 63.2032 218.162 62.8939 218.974 62.5847L219.554 62.3527C222.298 61.2317 223.11 60.8065 224.617 60.0334C225.313 59.6854 226.125 59.2602 227.323 58.6804C229.179 57.7526 230.145 57.2888 231.073 56.8635C232.078 56.3997 233.045 55.9358 234.977 54.9307L239.036 52.8433C239.848 52.4181 240.776 51.9155 242.515 51.181C243.984 50.5239 244.912 50.2146 245.724 49.944C245.956 49.8667 246.188 49.7894 246.42 49.7121C246.961 49.5188 247.502 49.3642 248.198 49.1323C248.778 48.939 249.474 48.7457 250.401 48.4751C251.6 48.1272 252.45 47.8953 253.185 47.6633C254.731 47.1994 255.62 46.9288 258.442 46.465C258.983 46.3877 259.447 46.3877 259.949 46.3877C260.375 46.3877 260.839 46.3877 261.38 46.3103C261.612 46.3103 261.921 46.233 262.114 46.1944L262.926 46.0398L264.279 45.9238L264.936 45.8465C265.632 45.7692 266.328 45.6532 267.024 45.5372C267.101 45.5372 267.255 45.4986 267.41 45.3826C267.565 45.2666 267.681 45.0347 267.681 44.8414C267.681 44.6095 267.603 44.3775 267.41 44.2616C267.255 44.1456 267.101 44.1456 267.024 44.1069L264.008 43.7977C263.815 43.7977 263.738 43.759 263.622 43.7204C263.506 43.7204 263.39 43.6817 263.119 43.6431C263.003 43.6431 262.694 43.6431 262.191 43.6431H262.153ZM128.286 47.7793C128.286 47.7793 128.054 47.8179 127.977 47.8953C127.899 48.0112 127.822 48.1659 127.899 48.2818C127.938 48.3978 128.054 48.4364 128.17 48.4751C128.17 48.4751 128.17 48.4751 128.209 48.4751C128.402 48.4751 128.556 48.3591 128.595 48.1658C128.634 47.9726 128.556 47.7793 128.363 47.7406C128.363 47.7406 128.286 47.7406 128.247 47.7406L128.286 47.7793Z" fill="#006448"/>
<path d="M216.577 161.468C213.678 161.468 209.696 161.313 208.459 160.037C208.189 159.767 208.073 159.458 208.073 159.071C208.15 156.829 211.204 154.625 214.142 152.499C214.799 152.035 215.417 151.572 216.036 151.108C217.157 150.257 218.394 149.33 221.061 147.551L221.255 147.435C223.651 145.735 224.888 144.884 226.164 144.034C226.512 143.802 226.86 143.57 227.246 143.299C228.251 142.603 229.411 141.792 231.344 140.671C234.514 138.776 235.867 138.081 237.568 137.191C238.727 136.612 240.042 135.916 242.206 134.717C244.371 133.635 245.685 132.939 246.806 132.321C248.546 131.393 249.822 130.697 253.262 129.19C255.697 128.03 257.166 127.566 258.442 127.102L258.983 126.909C259.872 126.638 260.723 126.29 261.921 125.865C262.694 125.556 263.622 125.247 264.82 124.821C266.135 124.358 267.41 123.894 268.609 123.43C270.116 122.85 271.508 122.347 272.784 121.922L277.384 120.376C277.384 120.376 277.809 120.221 278.118 120.105C278.466 119.989 278.853 119.835 279.123 119.757C281.984 119.023 283.337 118.752 284.612 118.559C285.501 118.404 286.275 118.25 287.357 118.018C288.169 117.863 289.135 117.67 290.411 117.399C293.349 116.781 294.856 116.394 296.325 116.046H296.441C297.91 115.737 299.456 115.428 302.51 114.925C305.023 114.5 306.492 114.346 307.806 114.23L314.764 113.495C317.78 113.34 319.326 113.186 320.911 113.07C321.259 113.07 321.607 113.031 321.993 112.993C323.114 112.877 324.39 112.761 326.361 112.761H327.057C332.392 112.761 333.087 112.838 337.146 113.07L339.427 113.186C341.051 113.263 342.249 113.302 343.254 113.34C344.143 113.34 344.878 113.379 345.612 113.456C347.158 113.572 348.705 113.688 351.758 113.998C353.305 114.152 354.426 114.307 355.392 114.423C355.779 114.5 356.127 114.577 356.475 114.655C356.938 114.771 357.402 114.887 357.866 114.925C359.219 115.08 359.335 115.351 359.335 115.351C359.335 115.351 359.335 115.428 359.219 115.583C358.253 116.665 353.885 118.095 350.753 118.095C349.014 118.095 347.932 118.057 347.004 118.018C346.463 118.018 345.999 118.018 345.573 117.979C345.342 117.979 345.11 117.979 344.878 117.979C344.53 117.979 344.143 117.979 343.718 117.979C343.177 117.979 342.597 117.979 341.901 117.979C341.437 117.979 340.973 117.979 340.394 117.979C337.804 118.057 336.528 118.095 335.252 118.173C334.286 118.173 333.319 118.288 331.85 118.404L330.15 118.52C327.018 118.714 325.82 118.907 324.158 119.178C323.114 119.332 321.916 119.525 319.983 119.757C318.475 119.912 317.432 120.105 316.543 120.221C315.924 120.299 315.421 120.415 314.919 120.453C314.532 120.531 314.184 120.569 313.798 120.608C312.832 120.724 311.633 120.878 309.816 121.304L308.231 121.652C305.989 122.141 303.412 122.773 300.5 123.546C300.5 123.546 300.23 123.584 300.075 123.623C299.766 123.662 299.418 123.739 299.031 123.816L298.683 123.894C297.987 124.048 296.75 124.358 295.127 124.821L293.735 125.208C292.073 125.672 290.218 126.213 288.323 126.87C284.69 128.107 283.762 128.455 281.559 129.344C280.824 129.653 279.935 130.001 278.737 130.427L276.92 131.161C275.683 131.664 274.832 132.011 273.982 132.321C272.745 132.785 271.508 133.287 269.266 134.37C266.83 135.491 265.709 136.109 264.666 136.689L260.143 139.086C257.282 140.632 256.239 141.25 254.808 142.139C253.958 142.681 252.914 143.26 251.291 144.227C248.623 145.85 247.58 146.585 246.265 147.474C245.415 148.054 244.41 148.75 242.709 149.871C241.163 150.953 240.158 151.61 239.307 152.151C237.877 153.079 236.872 153.775 234.282 155.669C233.393 156.326 231.614 157.563 228.947 159.38C226.976 160.695 224.579 161.352 221.796 161.352H221.525C220.868 161.352 220.095 161.352 219.322 161.352C218.471 161.352 217.544 161.352 216.616 161.352L216.577 161.468Z" fill="#006448"/>
<path d="M154.224 159.342C150.204 159.342 148.078 158.568 147.73 157.795C147.614 157.525 147.73 157.138 148.078 156.752C151.402 153.002 156.776 149.291 158.824 147.899C159.095 147.706 159.327 147.551 159.443 147.435C160.603 146.585 161.724 145.812 164.004 144.382C166.749 142.642 167.909 142.023 169.378 141.212C170.383 140.632 171.542 140.013 173.514 138.854L178.23 136.032C179.428 135.336 180.627 134.601 182.985 133.287C185.536 131.934 186.773 131.393 188.087 130.813C189.286 130.272 190.561 129.731 192.881 128.532C195.239 127.411 197.519 126.252 199.375 125.324C201.346 124.319 202.931 123.546 203.472 123.314C203.627 123.236 203.859 123.121 204.13 122.966C204.439 122.811 204.748 122.618 204.941 122.541C207.725 121.304 208.807 120.956 210.044 120.531C211.088 120.183 212.247 119.796 214.528 118.907C217.041 117.902 218.317 117.322 219.554 116.742C220.945 116.162 222.221 115.621 224.695 114.732L226.821 113.959C228.097 113.495 228.986 113.186 229.836 112.877L235.055 111.176C236.872 110.596 238.031 110.171 239.036 109.823C239.462 109.668 239.887 109.513 240.273 109.398C241.588 108.972 242.902 108.547 245.492 107.813C247.966 107.117 249.358 106.769 250.788 106.421C252.102 106.15 253.494 105.88 256.161 105.223C258.828 104.565 260.181 104.218 261.457 103.87C262.887 103.522 264.202 103.251 266.83 102.71C270.116 102.053 271.392 101.937 273.131 101.705C274.252 101.589 275.567 101.434 277.693 101.125C279.51 100.854 281.249 100.545 282.873 100.275C283.684 100.12 284.458 100.004 285.153 99.8881L289.29 99.3469C289.522 99.3469 289.792 99.2695 290.101 99.2309C290.411 99.1536 290.797 99.1149 291.029 99.0763C294.199 98.7284 295.243 98.7284 296.712 98.7284C297.755 98.7284 298.954 98.7284 301.273 98.5737C304.056 98.4191 305.409 98.2645 306.762 98.1099L308.966 97.8779C309.7 97.8393 310.589 97.8006 311.71 97.8006H312.213C314.146 97.8006 315.421 97.762 316.465 97.7233C317.741 97.7233 318.707 97.7233 320.215 97.7233C321.026 97.7233 321.954 97.7233 323.191 97.7233C325.24 97.8006 326.516 97.8006 327.598 97.8006H329.763C330.845 97.8006 332.121 97.8006 334.17 97.8779C337.03 98.0712 338.383 98.2645 339.813 98.4191C341.128 98.5737 342.481 98.767 345.071 98.9603L348.318 99.2309L350.521 99.4628C351.874 99.6175 353.266 99.7334 355.972 100.12C358.678 100.507 360.031 100.777 361.345 101.048L361.925 101.202C363.085 101.473 364.399 101.821 366.757 102.246L367.221 102.323C368.574 102.555 372.633 103.29 373.367 104.102C373.638 104.411 373.599 104.604 373.522 104.759C373.174 105.571 370.971 106.305 368.999 106.305C368.612 106.305 368.265 106.305 367.994 106.228C366.525 105.957 364.554 105.764 363.007 105.609C361.925 105.493 360.959 105.416 360.456 105.3L355.392 104.643C352.879 104.295 351.604 104.102 350.367 103.908L349.787 103.831C348.704 103.638 347.429 103.444 345.264 103.29C342.635 103.097 341.36 103.019 340.045 102.981C338.808 102.903 337.533 102.865 335.097 102.671C332.507 102.594 331.232 102.594 329.956 102.594C328.68 102.594 327.405 102.594 324.892 102.517C324.39 102.517 323.926 102.517 323.5 102.517C322.843 102.517 322.302 102.517 321.8 102.555L319.751 102.671C318.514 102.749 317.2 102.826 314.687 102.903H311.672L309.7 103.058C308.347 103.135 307.072 103.174 304.52 103.367H304.018C301.814 103.599 300.771 103.676 299.765 103.792L295.049 104.411C295.049 104.411 294.779 104.411 294.624 104.411C294.315 104.411 293.967 104.411 293.58 104.488L289.638 104.913C288.053 105.107 286.158 105.416 284.148 105.764L282.641 106.034L280.476 106.421C279.278 106.614 278.427 106.769 277.615 106.962L272.629 108.083C270.155 108.624 268.918 108.856 267.681 109.088C266.289 109.398 265.013 109.707 262.655 110.325C260.181 110.982 258.944 111.369 257.746 111.717C257.282 111.872 256.857 112.026 256.354 112.181C255.504 112.49 254.422 112.838 252.914 113.302C249.203 114.461 248.353 114.771 246.033 115.66C245.299 115.93 244.41 116.24 243.25 116.665C240.853 117.515 239.616 118.018 238.456 118.482L237.529 118.907C236.601 119.294 235.519 119.796 233.779 120.492C231.924 121.226 230.803 121.69 229.797 122.038L229.024 122.347C227.826 122.85 226.666 123.314 224.308 124.358C221.216 125.749 220.443 126.097 218.935 126.87C218.201 127.257 217.234 127.721 215.727 128.455C215.649 128.494 215.495 128.571 215.301 128.61C215.031 128.726 214.683 128.842 214.335 128.996C213.291 129.422 208.846 131.664 204.478 133.983L202.274 135.22C199.839 136.612 199.143 136.998 195.625 139.086C193.46 140.4 192.339 141.057 191.257 141.676C190.059 142.333 188.938 142.99 186.889 144.343C185.072 145.541 182.443 147.203 179.699 148.943C175.988 151.301 172.161 153.736 169.725 155.36C165.357 158.221 158.747 159.264 154.418 159.264L154.224 159.342Z" fill="#006448"/>
<path d="M273.788 156.133C272.899 156.133 271.778 155.631 271.585 154.857C271.314 153.852 272.59 152.422 275.102 150.992C275.875 150.528 276.687 150.103 277.808 149.523C278.465 149.175 279.277 148.75 280.244 148.209C282.06 147.203 283.22 146.585 284.225 146.044C284.65 145.812 284.998 145.619 285.385 145.425C286.622 144.768 287.859 144.111 290.603 142.835C292.188 142.062 293.348 141.56 294.276 141.134C294.894 140.864 295.397 140.632 295.899 140.4C297.136 139.82 298.412 139.24 301.234 138.158C303.051 137.423 304.288 136.998 305.293 136.65C305.795 136.457 306.259 136.302 306.723 136.148L308.965 135.375L312.251 134.37L315.189 133.519C315.73 133.403 316.194 133.287 316.697 133.21C317.199 133.133 317.702 133.017 318.204 132.901C318.745 132.746 319.248 132.63 319.712 132.514C320.408 132.321 321.026 132.166 321.529 132.05L326.167 131.084C327.056 130.89 328.1 130.659 329.53 130.504C331.811 130.233 333.744 130.117 335.252 130.117C338.576 130.117 338.963 130.736 339.04 130.929C339.156 131.432 338.074 132.475 336.489 133.365C333.744 134.911 330.845 136.341 328.023 137.694L327.791 137.81C318.088 142.526 310.125 146.082 302.703 148.982C298.992 150.451 295.706 151.456 292.382 152.229C290.681 152.615 289.212 152.963 287.898 153.273C283.181 154.355 280.321 155.012 274.175 156.094C274.059 156.094 273.943 156.094 273.827 156.094L273.788 156.133Z" fill="#006448"/>
<path d="M185.419 162.279C183.254 162.279 180.858 162.125 177.611 161.854C175.91 161.7 174.943 161.236 174.75 160.463C174.054 157.679 182.597 150.992 188.473 147.165L192.648 144.382C193.692 143.686 194.774 142.99 196.939 141.637C199.219 140.323 200.34 139.743 201.539 139.202C202.621 138.66 203.781 138.119 205.868 136.921C208.072 135.761 210.198 134.563 211.899 133.596C213.561 132.669 214.914 131.896 215.416 131.702C215.532 131.625 215.764 131.509 215.996 131.354C216.267 131.2 216.537 131.045 216.731 130.929C219.243 129.692 220.21 129.344 221.37 128.919C222.297 128.571 223.38 128.185 225.428 127.257C227.748 126.213 228.869 125.633 229.99 125.053C231.072 124.551 232.232 124.01 234.629 123.043L236.561 122.27C237.721 121.806 238.533 121.497 239.306 121.188L244.061 119.487C245.723 118.868 246.805 118.443 247.694 118.095C249.357 117.477 250.439 117.051 253.532 116.046C256.083 115.273 257.204 114.925 258.364 114.655C259.562 114.384 260.799 114.114 263.273 113.418C265.244 112.877 266.443 112.529 267.448 112.219L268.144 112.026C269.342 111.717 270.579 111.408 273.053 110.866C275.488 110.325 276.764 110.132 278.001 109.939L278.967 109.823C280.011 109.707 281.171 109.552 283.026 109.243L289.869 107.967L293.696 107.387C293.889 107.387 294.121 107.31 294.391 107.271C294.701 107.194 295.01 107.155 295.242 107.117C297.716 106.808 298.837 106.769 299.919 106.73H300.654C301.543 106.73 302.664 106.73 304.635 106.576C307.148 106.382 308.424 106.228 309.661 106.073L310.202 105.996C310.666 105.918 311.13 105.88 311.709 105.841C312.483 105.802 313.41 105.764 314.686 105.725L321.799 105.571C322.185 105.571 322.611 105.571 323.074 105.571C323.577 105.571 324.157 105.571 324.775 105.571C326.012 105.571 326.94 105.609 327.752 105.609C328.564 105.609 329.221 105.609 329.878 105.609C330.535 105.609 331.154 105.609 331.965 105.609C332.777 105.609 333.666 105.609 334.903 105.648C337.455 105.841 338.653 105.996 339.967 106.15C341.204 106.305 342.48 106.46 344.954 106.653C346.732 106.769 347.892 106.885 348.82 107.001C349.206 107.039 349.593 107.078 349.979 107.117C351.216 107.233 352.492 107.349 355.005 107.697C357.401 108.006 358.638 108.238 359.953 108.547C361.074 108.818 363.973 109.552 366.486 110.016C368.457 110.364 368.844 110.828 368.844 110.905C368.844 111.253 367.065 112.219 361.885 112.335H361.692C360.262 112.335 358.097 112.026 356.01 111.756C354.502 111.562 353.072 111.33 351.912 111.253C349.554 111.06 348.124 110.866 346.848 110.673C346.462 110.635 346.075 110.557 345.688 110.519C344.335 110.364 343.021 110.287 340.624 110.132L339.426 110.055C337.261 109.939 335.754 109.861 334.323 109.861C333.473 109.861 332.738 109.861 331.888 109.9C330.767 109.9 329.453 109.977 327.481 109.977H326.128C324.234 109.977 322.958 110.055 321.837 110.171C321.412 110.171 321.026 110.248 320.639 110.248C319.054 110.364 317.508 110.48 314.377 110.635C311.246 110.982 309.661 111.176 308.153 111.369L307.109 111.524C305.834 111.678 304.365 111.872 301.968 112.297C299.146 112.722 297.639 112.954 296.208 113.147H295.783C294.237 113.495 292.69 113.766 289.637 114.423C287.201 114.887 285.887 115.273 284.805 115.544L278.31 117.283C278.31 117.283 277.962 117.361 277.769 117.399C277.421 117.477 276.957 117.593 276.532 117.709L271.855 119.062C270.154 119.525 268.221 120.221 266.172 120.956C265.322 121.265 264.471 121.574 263.621 121.845C261.649 122.541 260.335 123.121 259.291 123.546C258.75 123.778 258.286 123.971 257.784 124.164L256.933 124.512C255.696 125.015 254.305 125.595 251.985 126.638L249.627 127.682C246.071 129.267 245.336 129.576 240.62 131.934C236.33 134.292 235.44 134.872 232.696 136.496L229.797 138.235C227.902 139.356 226.665 140.168 225.699 140.825C225.274 141.096 224.887 141.366 224.501 141.598L222.375 143.029L219.321 145.155C217.079 146.662 215.88 147.629 214.798 148.479L209.347 152.731C208.188 153.62 207.337 154.316 206.641 154.896C205.791 155.592 205.134 156.094 204.477 156.558C198.601 160.579 192.88 162.318 185.458 162.318L185.419 162.279Z" fill="#006448"/>
<path d="M200.65 55.3173C198.563 55.3173 196.476 54.8147 194.62 53.8483C187.623 50.2146 174.248 43.1405 163.192 36.6076C162.071 35.9504 161.376 34.7521 161.337 33.3991C161.105 21.4156 166.014 11.5196 175.215 5.52786C180.781 1.89416 187.469 0 194.504 0C200.264 0 206.101 1.31432 211.397 3.78833C230.609 12.7953 230.107 34.0563 229.488 40.3572C229.372 41.5943 228.638 42.6766 227.594 43.2565C223.419 45.5759 212.905 51.297 205.676 54.3122C204.052 54.9694 202.39 55.3173 200.65 55.3173Z" fill="#CC872A"/>
<path d="M90.3253 126.368C88.1605 126.909 85.9185 126.909 83.715 126.832C80.6998 126.716 77.8006 125.981 75.056 124.783C74.7081 124.628 74.1669 124.589 74.2056 124.087C74.2442 123.7 74.7468 123.623 75.056 123.507C79.2695 121.729 83.6377 121.033 88.1992 121.613C88.5471 121.652 88.895 121.652 89.3202 121.69C89.2429 121.149 88.8177 121.033 88.5084 120.801C83.5217 117.322 79.9654 112.761 77.5687 107.233C77.4914 107.078 77.4141 106.924 77.3754 106.769C77.2981 106.421 76.9888 106.073 77.2594 105.764C77.5687 105.416 77.9552 105.764 78.2645 105.841C80.7772 106.808 83.0579 108.122 85.2613 109.668C88.2378 111.794 90.7118 114.423 92.9926 117.399C92.9153 116.974 92.8379 116.549 92.7606 116.085C92.6833 115.621 92.606 115.119 92.5287 114.655C91.369 107.619 92.3741 100.854 95.1187 94.3215C95.2733 93.9736 95.3119 93.4325 95.7758 93.3938C96.2397 93.3938 96.317 93.935 96.433 94.2829C99.2936 101.164 100.221 108.238 98.8683 115.583C98.791 115.93 98.7524 116.278 98.7137 116.665C98.7137 116.781 98.791 116.858 98.8297 116.974C99.2936 116.897 99.3709 116.51 99.6028 116.24C103.082 111.485 107.643 108.122 113.055 105.88C113.442 105.725 113.906 105.3 114.254 105.725C114.563 106.073 114.215 106.576 114.06 106.962C111.702 112.645 108.069 117.322 102.966 120.84C102.695 121.033 102.463 121.226 102.115 121.458C102.618 121.768 103.043 121.574 103.43 121.536C108.03 121.033 112.437 121.69 116.689 123.546C116.96 123.662 117.385 123.739 117.385 124.126C117.385 124.589 116.921 124.628 116.612 124.744C112.321 126.638 107.837 127.179 103.237 126.677C102.579 126.6 101.961 126.522 101.342 126.445C101.342 126.445 101.304 126.484 101.149 126.638C102.734 128.069 104.203 129.692 105.208 131.625C105.556 132.282 105.865 133.017 106.174 133.712C106.29 133.983 106.445 134.292 106.29 134.524C106.02 134.872 105.672 134.601 105.401 134.524C101.961 133.249 99.2549 131.006 97.2448 127.991C97.0128 127.643 96.8195 127.334 96.3557 127.025C96.3557 128.416 96.3557 129.808 96.3557 131.161C96.3557 131.625 96.4716 132.282 95.7758 132.282C95.196 132.282 95.3119 131.625 95.3119 131.2C95.3119 129.808 95.312 128.416 95.196 126.986C93.959 128.726 92.722 130.388 91.0984 131.702C89.6295 132.901 88.0059 133.906 86.189 134.524C85.9571 134.601 85.6479 134.833 85.4159 134.563C85.184 134.331 85.3773 134.022 85.4546 133.79C86.2277 131.78 87.3101 129.924 88.779 128.378C89.3202 127.798 89.9774 127.295 90.5572 126.754C90.4799 126.638 90.4413 126.484 90.3639 126.368H90.3253Z" fill="#CC872A"/>
</svg>
